<?xml version="1.0" encoding="UTF-8" standalone="no"?>
<!-- Created with Inkscape (http://www.inkscape.org/) -->

<svg
   xmlns:dc="http://purl.org/dc/elements/1.1/"
   xmlns:cc="http://creativecommons.org/ns#"
   xmlns:rdf="http://www.w3.org/1999/02/22-rdf-syntax-ns#"
   xmlns:svg="http://www.w3.org/2000/svg"
   xmlns="http://www.w3.org/2000/svg"
   xmlns:sodipodi="http://sodipodi.sourceforge.net/DTD/sodipodi-0.dtd"
   xmlns:inkscape="http://www.inkscape.org/namespaces/inkscape"
   width="213.49786"
   height="490.87582"
   id="svg2"
   version="1.1"
   inkscape:version="0.48.4 r9939"
   sodipodi:docname="panel.svg">
  <defs
     id="defs4" />
  <sodipodi:namedview
     id="base"
     pagecolor="#ffffff"
     bordercolor="#666666"
     borderopacity="1.0"
     inkscape:pageopacity="0.0"
     inkscape:pageshadow="2"
     inkscape:zoom="1.1540196"
     inkscape:cx="266.57976"
     inkscape:cy="265.60906"
     inkscape:document-units="px"
     inkscape:current-layer="layer1"
     showgrid="false"
     units="mm"
     fit-margin-top="5"
     fit-margin-left="5"
     fit-margin-right="5"
     fit-margin-bottom="5"
     inkscape:window-width="1920"
     inkscape:window-height="1018"
     inkscape:window-x="-8"
     inkscape:window-y="-8"
     inkscape:window-maximized="1" />
  <metadata
     id="metadata7">
    <rdf:RDF>
      <cc:Work
         rdf:about="">
        <dc:format>image/svg+xml</dc:format>
        <dc:type
           rdf:resource="http://purl.org/dc/dcmitype/StillImage" />
        <dc:title></dc:title>
      </cc:Work>
    </rdf:RDF>
  </metadata>
  <g
     inkscape:label="Layer 1"
     inkscape:groupmode="layer"
     id="layer1"
     transform="translate(17.716535,-579.2029)">
    <rect
       style="fill:none;stroke:#ff0000;stroke-width:0.03543307;stroke-linecap:butt;stroke-linejoin:miter;stroke-miterlimit:4;stroke-opacity:1;stroke-dasharray:none"
       id="rect2985"
       width="177.93979"
       height="455.31775"
       x="0.0625"
       y="596.98193" />
    <path
       sodipodi:type="arc"
       style="fill:none;stroke:#ff0000;stroke-width:0.01465144;stroke-miterlimit:4;stroke-opacity:1;stroke-dasharray:none"
       id="path3773"
       sodipodi:cx="-16.875"
       sodipodi:cy="155.39789"
       sodipodi:rx="2.3214285"
       sodipodi:ry="2.3214285"
       d="m -14.553571,155.39789 c 0,1.28209 -1.039339,2.32143 -2.321429,2.32143 -1.28209,0 -2.321429,-1.03934 -2.321429,-2.32143 0,-1.28209 1.039339,-2.32143 2.321429,-2.32143 1.28209,0 2.321429,1.03934 2.321429,2.32143 z"
       transform="matrix(2.4191611,0,0,2.4176418,67.407265,666.03024)" />
    <path
       sodipodi:type="arc"
       style="fill:none;stroke:#ff0000;stroke-width:0.01465144;stroke-miterlimit:4;stroke-opacity:1;stroke-dasharray:none"
       id="path3773-1"
       sodipodi:cx="-16.875"
       sodipodi:cy="155.39789"
       sodipodi:rx="2.3214285"
       sodipodi:ry="2.3214285"
       d="m -14.553571,155.39789 c 0,1.28209 -1.039339,2.32143 -2.321429,2.32143 -1.28209,0 -2.321429,-1.03934 -2.321429,-2.32143 0,-1.28209 1.039339,-2.32143 2.321429,-2.32143 1.28209,0 2.321429,1.03934 2.321429,2.32143 z"
       transform="matrix(2.4191611,0,0,2.4176418,194.96632,666.03024)" />
    <path
       sodipodi:type="arc"
       style="fill:none;stroke:#ff0000;stroke-width:0.01465144;stroke-miterlimit:4;stroke-opacity:1;stroke-dasharray:none"
       id="path3773-7"
       sodipodi:cx="-16.875"
       sodipodi:cy="155.39789"
       sodipodi:rx="2.3214285"
       sodipodi:ry="2.3214285"
       d="m -14.553571,155.39789 c 0,1.28209 -1.039339,2.32143 -2.321429,2.32143 -1.28209,0 -2.321429,-1.03934 -2.321429,-2.32143 0,-1.28209 1.039339,-2.32143 2.321429,-2.32143 1.28209,0 2.321429,1.03934 2.321429,2.32143 z"
       transform="matrix(2.4191611,0,0,2.4176418,67.407265,231.97512)" />
    <path
       sodipodi:type="arc"
       style="fill:none;stroke:#ff0000;stroke-width:0.01465144;stroke-miterlimit:4;stroke-opacity:1;stroke-dasharray:none"
       id="path3773-1-4"
       sodipodi:cx="-16.875"
       sodipodi:cy="155.39789"
       sodipodi:rx="2.3214285"
       sodipodi:ry="2.3214285"
       d="m -14.553571,155.39789 c 0,1.28209 -1.039339,2.32143 -2.321429,2.32143 -1.28209,0 -2.321429,-1.03934 -2.321429,-2.32143 0,-1.28209 1.039339,-2.32143 2.321429,-2.32143 1.28209,0 2.321429,1.03934 2.321429,2.32143 z"
       transform="matrix(2.4191611,0,0,2.4176418,194.96632,231.97512)" />
  </g>
</svg>
